<mxfile host="Electron" modified="2025-03-08T13:27:01.205Z" agent="Mozilla/5.0 (X11; Linux x86_64) AppleWebKit/537.36 (KHTML, like Gecko) draw.io/24.4.6 Chrome/124.0.6367.207 Electron/30.0.6 Safari/537.36" etag="eJUmdonHLQ6wvMkwt7xO" version="24.4.6" type="device">
  <diagram name="Страница — 4" id="cZjBRGbRrhDi0i7BnWLo">
    <mxGraphModel dx="1354" dy="818" grid="1" gridSize="10" guides="1" tooltips="1" connect="1" arrows="1" fold="1" page="1" pageScale="1" pageWidth="850" pageHeight="1100" math="0" shadow="0">
      <root>
        <mxCell id="0" />
        <mxCell id="1" parent="0" />
        <mxCell id="IWIJwX_4kNNAZsDQ8i7Y-8" style="rounded=0;orthogonalLoop=1;jettySize=auto;html=1;entryX=0;entryY=0.333;entryDx=0;entryDy=0;strokeColor=#000000;endArrow=none;endFill=0;entryPerimeter=0;fillColor=#60a917;fontStyle=0" edge="1" parent="1" source="IWIJwX_4kNNAZsDQ8i7Y-12" target="IWIJwX_4kNNAZsDQ8i7Y-14">
          <mxGeometry relative="1" as="geometry" />
        </mxCell>
        <mxCell id="IWIJwX_4kNNAZsDQ8i7Y-9" style="rounded=0;orthogonalLoop=1;jettySize=auto;html=1;entryX=0;entryY=0.5;entryDx=0;entryDy=0;endArrow=none;endFill=0;fillColor=#60a917;strokeColor=#000000;fontStyle=0" edge="1" parent="1" source="IWIJwX_4kNNAZsDQ8i7Y-12" target="IWIJwX_4kNNAZsDQ8i7Y-15">
          <mxGeometry relative="1" as="geometry" />
        </mxCell>
        <mxCell id="IWIJwX_4kNNAZsDQ8i7Y-10" style="rounded=0;orthogonalLoop=1;jettySize=auto;html=1;entryX=0;entryY=0.5;entryDx=0;entryDy=0;endArrow=none;endFill=0;" edge="1" parent="1" source="IWIJwX_4kNNAZsDQ8i7Y-12" target="IWIJwX_4kNNAZsDQ8i7Y-35">
          <mxGeometry relative="1" as="geometry" />
        </mxCell>
        <mxCell id="IWIJwX_4kNNAZsDQ8i7Y-11" style="rounded=0;orthogonalLoop=1;jettySize=auto;html=1;endArrow=none;endFill=0;" edge="1" parent="1" source="IWIJwX_4kNNAZsDQ8i7Y-12" target="IWIJwX_4kNNAZsDQ8i7Y-16">
          <mxGeometry relative="1" as="geometry" />
        </mxCell>
        <mxCell id="IWIJwX_4kNNAZsDQ8i7Y-38" style="rounded=0;orthogonalLoop=1;jettySize=auto;html=1;entryX=0;entryY=0.5;entryDx=0;entryDy=0;" edge="1" parent="1" source="IWIJwX_4kNNAZsDQ8i7Y-12" target="IWIJwX_4kNNAZsDQ8i7Y-17">
          <mxGeometry relative="1" as="geometry" />
        </mxCell>
        <mxCell id="IWIJwX_4kNNAZsDQ8i7Y-12" value="&lt;font color=&quot;#000000&quot;&gt;Пользователь&lt;/font&gt;" style="shape=umlActor;verticalLabelPosition=bottom;verticalAlign=top;html=1;outlineConnect=0;fillColor=#000000;fontColor=#ffffff;strokeColor=#000000;fontStyle=0" vertex="1" parent="1">
          <mxGeometry x="60" y="510" width="30" height="60" as="geometry" />
        </mxCell>
        <mxCell id="IWIJwX_4kNNAZsDQ8i7Y-13" value="&amp;lt;&amp;lt;Расширяет&amp;gt;&amp;gt;" style="rounded=0;orthogonalLoop=1;jettySize=auto;html=1;dashed=1;exitX=0;exitY=0.5;exitDx=0;exitDy=0;fontStyle=0" edge="1" parent="1" source="IWIJwX_4kNNAZsDQ8i7Y-19" target="IWIJwX_4kNNAZsDQ8i7Y-14">
          <mxGeometry relative="1" as="geometry" />
        </mxCell>
        <mxCell id="IWIJwX_4kNNAZsDQ8i7Y-14" value="Login" style="ellipse;whiteSpace=wrap;html=1;fontStyle=0" vertex="1" parent="1">
          <mxGeometry x="280" y="170" width="90" height="60" as="geometry" />
        </mxCell>
        <mxCell id="IWIJwX_4kNNAZsDQ8i7Y-15" value="Просмотр видео" style="ellipse;whiteSpace=wrap;html=1;fontStyle=0" vertex="1" parent="1">
          <mxGeometry x="280" y="270" width="90" height="60" as="geometry" />
        </mxCell>
        <mxCell id="IWIJwX_4kNNAZsDQ8i7Y-16" value="Список для просмотра" style="ellipse;whiteSpace=wrap;html=1;fontStyle=0" vertex="1" parent="1">
          <mxGeometry x="260" y="570" width="90" height="60" as="geometry" />
        </mxCell>
        <mxCell id="IWIJwX_4kNNAZsDQ8i7Y-17" value="отзыв" style="ellipse;whiteSpace=wrap;html=1;fontStyle=0" vertex="1" parent="1">
          <mxGeometry x="280" y="470" width="90" height="60" as="geometry" />
        </mxCell>
        <mxCell id="IWIJwX_4kNNAZsDQ8i7Y-18" value="Забыли пароль" style="ellipse;whiteSpace=wrap;html=1;fontStyle=0" vertex="1" parent="1">
          <mxGeometry x="550" y="150" width="70" height="50" as="geometry" />
        </mxCell>
        <mxCell id="IWIJwX_4kNNAZsDQ8i7Y-19" value="Login error" style="ellipse;whiteSpace=wrap;html=1;fontStyle=0" vertex="1" parent="1">
          <mxGeometry x="560" y="220" width="70" height="50" as="geometry" />
        </mxCell>
        <mxCell id="IWIJwX_4kNNAZsDQ8i7Y-20" value="&amp;lt;&amp;lt;Включает&amp;gt;&amp;gt;" style="rounded=0;orthogonalLoop=1;jettySize=auto;html=1;entryX=0;entryY=0.5;entryDx=0;entryDy=0;dashed=1;fontStyle=0" edge="1" parent="1" source="IWIJwX_4kNNAZsDQ8i7Y-14" target="IWIJwX_4kNNAZsDQ8i7Y-18">
          <mxGeometry relative="1" as="geometry" />
        </mxCell>
        <mxCell id="IWIJwX_4kNNAZsDQ8i7Y-21" value="&amp;lt;&amp;lt;Включает&amp;gt;&amp;gt;" style="rounded=0;orthogonalLoop=1;jettySize=auto;html=1;entryX=0.5;entryY=1;entryDx=0;entryDy=0;dashed=1;fontStyle=0" edge="1" parent="1" source="IWIJwX_4kNNAZsDQ8i7Y-22" target="IWIJwX_4kNNAZsDQ8i7Y-30">
          <mxGeometry relative="1" as="geometry" />
        </mxCell>
        <mxCell id="IWIJwX_4kNNAZsDQ8i7Y-22" value="Подписка" style="ellipse;whiteSpace=wrap;html=1;fontStyle=0" vertex="1" parent="1">
          <mxGeometry x="450" y="900" width="90" height="60" as="geometry" />
        </mxCell>
        <mxCell id="IWIJwX_4kNNAZsDQ8i7Y-23" style="rounded=0;orthogonalLoop=1;jettySize=auto;html=1;entryX=0.5;entryY=1;entryDx=0;entryDy=0;dashed=1;fontStyle=0" edge="1" parent="1" source="IWIJwX_4kNNAZsDQ8i7Y-25" target="IWIJwX_4kNNAZsDQ8i7Y-22">
          <mxGeometry relative="1" as="geometry" />
        </mxCell>
        <mxCell id="IWIJwX_4kNNAZsDQ8i7Y-24" value="&amp;lt;&amp;lt;Расширяет&amp;gt;&amp;gt;" style="edgeLabel;html=1;align=center;verticalAlign=middle;resizable=0;points=[];fontStyle=0" vertex="1" connectable="0" parent="IWIJwX_4kNNAZsDQ8i7Y-23">
          <mxGeometry x="-0.331" y="-3" relative="1" as="geometry">
            <mxPoint y="1" as="offset" />
          </mxGeometry>
        </mxCell>
        <mxCell id="IWIJwX_4kNNAZsDQ8i7Y-25" value="&lt;span data-end=&quot;806&quot; data-start=&quot;789&quot;&gt;Ошибка оплаты&lt;/span&gt;" style="ellipse;whiteSpace=wrap;html=1;fontStyle=0" vertex="1" parent="1">
          <mxGeometry x="660" y="930" width="70" height="50" as="geometry" />
        </mxCell>
        <mxCell id="IWIJwX_4kNNAZsDQ8i7Y-26" style="rounded=0;orthogonalLoop=1;jettySize=auto;html=1;entryX=1;entryY=0.5;entryDx=0;entryDy=0;endArrow=none;endFill=0;fontStyle=0" edge="1" parent="1" source="IWIJwX_4kNNAZsDQ8i7Y-27" target="IWIJwX_4kNNAZsDQ8i7Y-16">
          <mxGeometry relative="1" as="geometry" />
        </mxCell>
        <mxCell id="IWIJwX_4kNNAZsDQ8i7Y-27" value="Подписка Plus" style="ellipse;whiteSpace=wrap;html=1;fontStyle=0" vertex="1" parent="1">
          <mxGeometry x="380" y="680" width="90" height="60" as="geometry" />
        </mxCell>
        <mxCell id="IWIJwX_4kNNAZsDQ8i7Y-28" style="rounded=0;orthogonalLoop=1;jettySize=auto;html=1;entryX=1;entryY=0.5;entryDx=0;entryDy=0;endArrow=none;endFill=0;exitX=1;exitY=0.5;exitDx=0;exitDy=0;fontStyle=0" edge="1" parent="1" source="IWIJwX_4kNNAZsDQ8i7Y-30" target="IWIJwX_4kNNAZsDQ8i7Y-16">
          <mxGeometry relative="1" as="geometry" />
        </mxCell>
        <mxCell id="IWIJwX_4kNNAZsDQ8i7Y-29" style="rounded=0;orthogonalLoop=1;jettySize=auto;html=1;endArrow=none;endFill=0;fontStyle=0" edge="1" parent="1" source="IWIJwX_4kNNAZsDQ8i7Y-30" target="IWIJwX_4kNNAZsDQ8i7Y-17">
          <mxGeometry relative="1" as="geometry" />
        </mxCell>
        <mxCell id="IWIJwX_4kNNAZsDQ8i7Y-30" value="Подписка Premium" style="ellipse;whiteSpace=wrap;html=1;fontStyle=0" vertex="1" parent="1">
          <mxGeometry x="740" y="670" width="90" height="60" as="geometry" />
        </mxCell>
        <mxCell id="IWIJwX_4kNNAZsDQ8i7Y-31" value="&amp;lt;&amp;lt;Включает&amp;gt;&amp;gt;" style="rounded=0;orthogonalLoop=1;jettySize=auto;html=1;entryX=-0.016;entryY=0.635;entryDx=0;entryDy=0;entryPerimeter=0;dashed=1;fontStyle=0" edge="1" parent="1" source="IWIJwX_4kNNAZsDQ8i7Y-22" target="IWIJwX_4kNNAZsDQ8i7Y-27">
          <mxGeometry relative="1" as="geometry" />
        </mxCell>
        <mxCell id="IWIJwX_4kNNAZsDQ8i7Y-32" value="&amp;lt;&amp;lt;Расширяет&amp;gt;&amp;gt;" style="rounded=0;orthogonalLoop=1;jettySize=auto;html=1;entryX=0.5;entryY=1;entryDx=0;entryDy=0;dashed=1;fontStyle=0" edge="1" parent="1" source="IWIJwX_4kNNAZsDQ8i7Y-34" target="IWIJwX_4kNNAZsDQ8i7Y-27">
          <mxGeometry relative="1" as="geometry" />
        </mxCell>
        <mxCell id="IWIJwX_4kNNAZsDQ8i7Y-33" value="&amp;lt;&amp;lt;Расширяет&amp;gt;&amp;gt;" style="rounded=0;orthogonalLoop=1;jettySize=auto;html=1;entryX=0;entryY=0.646;entryDx=0;entryDy=0;dashed=1;fontStyle=0;entryPerimeter=0;" edge="1" parent="1" source="IWIJwX_4kNNAZsDQ8i7Y-34" target="IWIJwX_4kNNAZsDQ8i7Y-30">
          <mxGeometry relative="1" as="geometry" />
        </mxCell>
        <mxCell id="IWIJwX_4kNNAZsDQ8i7Y-34" value="Plan Expired" style="ellipse;whiteSpace=wrap;html=1;fontStyle=0" vertex="1" parent="1">
          <mxGeometry x="520" y="780" width="60" height="40" as="geometry" />
        </mxCell>
        <mxCell id="IWIJwX_4kNNAZsDQ8i7Y-35" value="&lt;p style=&quot;line-height: 120%;&quot;&gt;&lt;span style=&quot;font-size: 14px; text-align: right;&quot;&gt;&lt;font face=&quot;Helvetica&quot; style=&quot;&quot;&gt;загружать видео&lt;/font&gt;&lt;/span&gt;&lt;/p&gt;" style="ellipse;whiteSpace=wrap;html=1;fontStyle=0;strokeColor=default;fontColor=#000000;labelBackgroundColor=none;labelBorderColor=none;" vertex="1" parent="1">
          <mxGeometry x="280" y="370" width="90" height="60" as="geometry" />
        </mxCell>
        <mxCell id="IWIJwX_4kNNAZsDQ8i7Y-36" style="rounded=0;orthogonalLoop=1;jettySize=auto;html=1;entryX=0;entryY=0.5;entryDx=0;entryDy=0;endArrow=none;endFill=0;fontStyle=0" edge="1" parent="1" source="IWIJwX_4kNNAZsDQ8i7Y-12" target="IWIJwX_4kNNAZsDQ8i7Y-22">
          <mxGeometry relative="1" as="geometry" />
        </mxCell>
      </root>
    </mxGraphModel>
  </diagram>
</mxfile>
